<?xml version="1.0" encoding="iso-8859-1"?>
<!-- Generator: Adobe Illustrator 19.0.0, SVG Export Plug-In . SVG Version: 6.00 Build 0)  -->
<svg version="1.1" id="Capa_1" xmlns="http://www.w3.org/2000/svg" xmlns:xlink="http://www.w3.org/1999/xlink" x="0px" y="0px"
	 viewBox="0 0 512.002 512.002" style="enable-background:new 0 0 512.002 512.002;" xml:space="preserve">
<g>
	<g>
		<path d="M211.572,266.164H103.561c-9.384,0-17.019,7.635-17.019,17.02v51.675c0,9.384,7.634,17.019,17.019,17.019h108.012
			c9.384,0,17.019-7.634,17.019-17.019v-51.675C228.591,273.8,220.957,266.164,211.572,266.164z M213.574,334.859
			c0,1.104-0.898,2.002-2.002,2.002H103.561c-1.104,0-2.002-0.898-2.002-2.002v-51.675c0-1.105,0.898-2.003,2.002-2.003h108.012
			c1.104,0,2.002,0.898,2.002,2.003V334.859z"/>
	</g>
</g>
<g>
	<g>
		<path d="M398.256,266.164h-23.544c-4.147,0-7.508,3.361-7.508,7.508c0,4.148,3.362,7.508,7.508,7.508h23.544
			c1.104,0,2.002,0.898,2.002,2.003v51.675c0,1.104-0.898,2.002-2.002,2.002H290.245c-1.104,0-2.002-0.898-2.002-2.002v-51.675
			c0-1.105,0.898-2.003,2.002-2.003h48.699c4.147,0,7.508-3.361,7.508-7.508c0-4.148-3.362-7.508-7.508-7.508h-48.699
			c-9.384,0-17.019,7.635-17.019,17.02v51.675c-0.001,9.384,7.634,17.019,17.019,17.019h108.012c9.384,0,17.019-7.634,17.019-17.019
			v-51.675C415.275,273.8,407.64,266.164,398.256,266.164z"/>
	</g>
</g>
<g>
	<g>
		<path d="M305.773,105.252c-1.901-2.094-4.818-2.939-7.547-2.192c-1.747,0.479-3.545,0.724-5.342,0.724
			c-3.931,0-7.74-1.138-11.018-3.292c-2.04-1.341-4.606-1.606-6.88-0.71c-2.272,0.897-3.965,2.843-4.541,5.217
			c-1.373,5.67-5.153,10.458-10.369,13.139c-2.013,1.034-3.453,2.922-3.917,5.138c-0.464,2.215,0.095,4.523,1.524,6.278
			c0.565,0.692,1.083,1.424,1.544,2.173c1.332,2.171,3.674,3.52,6.221,3.58c0.06,0.001,0.12,0.002,0.179,0.002
			c2.48,0,4.805-1.226,6.205-3.282c3.757-5.517,9.976-8.811,16.635-8.811c2.518,0,4.982,0.466,7.324,1.382
			c2.199,0.862,4.676,0.638,6.685-0.605c2.009-1.241,3.317-3.358,3.53-5.71c0.165-1.821,0.577-3.608,1.225-5.309
			C308.237,110.331,307.674,107.347,305.773,105.252z"/>
	</g>
</g>
<g>
	<g>
		<path d="M194.625,90.717c-0.169-0.244-0.333-0.492-0.493-0.745c-1.149-1.821-3.025-3.061-5.152-3.404
			c-2.125-0.344-4.297,0.243-5.962,1.61c-3.632,2.982-8.04,4.558-12.748,4.558c-0.111,0-0.221-0.005-0.331-0.009l-0.262-0.009
			c-2.34-0.062-4.588,0.965-6.062,2.791c-1.474,1.827-2.007,4.237-1.445,6.516c0.392,1.589,0.592,3.22,0.592,4.847
			c0,1.909-0.273,3.811-0.812,5.653c-0.678,2.319-0.198,4.823,1.289,6.728c1.488,1.905,3.804,2.985,6.214,2.881
			c2.444-0.095,4.915,0.246,7.257,1.038c0.785,0.266,1.597,0.396,2.405,0.396c1.566,0,3.115-0.49,4.415-1.436
			c1.97-1.433,3.123-3.731,3.093-6.166l-0.008-0.311c0.015-5.74,2.497-11.214,6.813-15.026
			C196.286,98.109,196.801,93.846,194.625,90.717z"/>
	</g>
</g>
<g>
	<g>
		<path d="M481.295,414.186c-2.298,0-4.572,0.257-6.801,0.768c-5.316-4.084-11.772-6.291-18.604-6.291
			c-16.932,0-30.706,13.775-30.706,30.706c0,0.828,0.037,1.661,0.111,2.509c-2.247,4.355-3.425,9.162-3.425,14.061
			c0,16.931,13.774,30.706,30.706,30.706c9.42,0,18.132-4.266,23.895-11.434c1.595,0.258,3.207,0.387,4.825,0.387
			c16.932,0,30.706-13.775,30.706-30.706C512.002,427.962,498.226,414.186,481.295,414.186z M481.295,460.581
			c-1.855,0-3.702-0.34-5.492-1.012c-3.558-1.337-7.55,0.197-9.302,3.569c-2.719,5.236-8.056,8.488-13.927,8.488
			c-8.651,0-15.689-7.038-15.689-15.689c0-2.987,0.866-5.918,2.504-8.478c1.017-1.587,1.398-3.498,1.071-5.354
			c-0.176-0.997-0.261-1.893-0.261-2.738c0-8.651,7.039-15.689,15.689-15.689c4.315,0,8.339,1.731,11.332,4.872
			c2.119,2.224,5.38,2.933,8.23,1.791c1.886-0.757,3.852-1.14,5.844-1.14c8.651,0,15.689,7.038,15.689,15.689
			C496.984,453.541,489.946,460.581,481.295,460.581z"/>
	</g>
</g>
<g>
	<g>
		<g>
			<path d="M440.133,248.936l-32.524-55.29c-0.039-0.066-0.079-0.131-0.119-0.195c-0.659-11.773-7.593-22.084-17.431-27.369
				c4.763-6.609,7.54-15.056,7.54-23.859c0-16.504-11.442-30.387-26.809-34.13c2.347-4.751,3.612-10.055,3.612-15.579
				c0-19.368-15.756-35.125-35.124-35.125c-6.528,0-12.871,1.827-18.339,5.175c-6.537-8.641-16.897-14.011-28.056-14.011
				c-2.207,0-4.379,0.2-6.507,0.601c-4.727-13.895-17.899-23.797-33.26-23.797c-13.994,0-26.227,8.124-31.85,20.268
				c-3.268-0.983-6.675-1.49-10.126-1.49c-5.541,0-10.991,1.322-15.884,3.801c-6.525-6.627-15.443-10.428-24.987-10.428
				c-19.343,0-35.083,15.717-35.125,35.052c-15.772,3.448-27.615,17.525-27.615,34.317c0,1.385,0.082,2.765,0.245,4.136
				c-11.474,5.933-19.024,17.928-19.024,31.213c0,12.179,6.231,22.93,15.672,29.233c-5.819,5.645-9.618,13.434-10.097,21.995
				c-0.041,0.065-0.081,0.13-0.12,0.196l-32.522,55.289c-3.104,3.811-4.968,8.67-4.968,13.957v92.259
				c0,12.204,9.929,22.133,22.133,22.133h31.973l8.194,82.829c1.364,15.125,13.843,26.53,29.03,26.53h206.247
				c3.752,0,7.388-0.7,10.83-2.082c3.501,1.322,7.197,1.984,10.894,1.984c7.863,0,15.725-2.992,21.712-8.979
				c5.8-5.8,8.995-13.512,8.995-21.713c0-8.2-3.195-15.912-8.995-21.712c-1.627-1.628-3.417-3.054-5.354-4.27
				c-0.611-4.663-2.272-9.07-4.877-12.953l3.834-39.638h31.635c12.204,0,22.133-9.929,22.133-22.133v-92.259
				C445.1,257.606,443.237,252.746,440.133,248.936z M406.446,221.282l11.456,19.475h-13.344L406.446,221.282z M392.528,195.286
				v13.954h-0.001l-3.055,31.517h-34.507l3.284-49.866c0.728-3.285,2.402-6.284,4.887-8.684c3.418-3.301,7.935-5.03,12.681-4.858
				C385.032,177.682,392.528,185.729,392.528,195.286z M103.768,142.22c0-8.998,6.047-16.961,14.704-19.365
				c1.982-0.551,3.652-1.891,4.619-3.707c0.967-1.816,1.146-3.949,0.496-5.902c-0.69-2.068-1.04-4.214-1.04-6.374
				c0-11.087,9.02-20.108,20.107-20.108c0.162,0,0.318,0.008,0.475,0.016c2.357,0.099,4.631-0.908,6.132-2.733
				c1.501-1.824,2.054-4.249,1.496-6.544c-0.394-1.617-0.594-3.257-0.594-4.873c0-11.087,9.021-20.108,20.108-20.108
				c6.938,0,13.299,3.512,17.016,9.394c1.15,1.82,3.026,3.059,5.153,3.401c2.127,0.346,4.297-0.243,5.961-1.61
				c3.63-2.982,8.037-4.558,12.743-4.558c3.803,0,7.518,1.074,10.742,3.107c2.126,1.34,4.782,1.528,7.077,0.5
				c2.294-1.028,3.921-3.137,4.334-5.616c1.618-9.717,9.955-16.768,19.824-16.768c10.659,0,19.477,8.323,20.075,18.951
				c0.142,2.515,1.536,4.791,3.711,6.062c2.174,1.27,4.842,1.365,7.103,0.252c2.784-1.372,5.771-2.066,8.878-2.066
				c8.356,0,15.93,5.259,18.847,13.086c0.917,2.461,3.053,4.264,5.632,4.754c2.583,0.492,5.229-0.402,6.985-2.356
				c3.801-4.226,9.243-6.649,14.931-6.649c11.087,0,20.107,9.021,20.107,20.108c0,7.013-3.569,13.411-9.547,17.113
				c-3.237,2.005-4.461,6.115-2.847,9.565c1.613,3.447,5.549,5.144,9.166,3.944c2.041-0.678,4.167-1.021,6.318-1.021
				c11.087,0,20.107,9.021,20.107,20.108c0,8.512-4.088,16.614-10.186,20.221c-7.386,0.626-14.276,3.732-19.695,8.963
				c-0.849,0.819-1.646,1.676-2.392,2.566c-5.942-7.112-14.872-11.643-24.841-11.643c-9.977,0-18.914,4.537-24.854,11.658
				c-5.942-7.12-14.877-11.658-24.854-11.658c-9.977,0-18.914,4.537-24.854,11.658c-5.942-7.12-14.877-11.658-24.854-11.658
				c-9.977,0-18.913,4.537-24.854,11.658c-5.942-7.12-14.877-11.658-24.854-11.658c-9.969,0-18.901,4.531-24.841,11.643
				c-0.746-0.891-1.544-1.747-2.392-2.566c-6.376-6.154-14.778-9.369-23.652-9.061c-0.239,0.009-0.479,0.021-0.717,0.035
				c-0.285-0.033-0.575-0.051-0.868-0.051C112.788,162.328,103.768,153.307,103.768,142.22z M308.119,194.96
				c0.003-0.089,0.005-0.179,0.005-0.269c0-9.565,7.782-17.346,17.346-17.346c9.565,0,17.346,7.781,17.346,17.346
				c0,0.336,0.022,0.667,0.065,0.991l-2.968,45.074h-33.358l1.565-45.254C308.126,195.32,308.126,195.139,308.119,194.96z
				 M250.908,237.963c4.147,0,7.508-3.361,7.508-7.508v-35.211c0-0.092-0.002-0.184-0.006-0.276
				c0.003-0.092,0.006-0.184,0.006-0.276c0-9.565,7.782-17.346,17.346-17.346c9.564,0,17.346,7.782,17.346,17.346
				c0,0.091,0.002,0.181,0.005,0.271c0,0.007-0.001,0.014-0.001,0.021l-1.583,45.773h-24.582c-3.804,0-7.519,1.547-10.182,4.234
				l-4.414,4.436c-0.496,0.498-1.058,0.602-1.443,0.602s-0.947-0.104-1.439-0.597l-4.408-4.431
				c-2.674-2.697-6.389-4.244-10.193-4.244h-24.583l-1.583-45.773c0-0.007-0.001-0.014-0.001-0.021
				c0.003-0.09,0.005-0.181,0.005-0.271c0-9.565,7.781-17.346,17.346-17.346s17.346,7.782,17.346,17.346
				c0,0.092,0.002,0.184,0.006,0.276c-0.003,0.092-0.006,0.184-0.006,0.276v35.211C243.4,234.603,246.762,237.963,250.908,237.963z
				 M195.259,240.757h-33.358l-2.968-45.074c0.043-0.324,0.065-0.656,0.065-0.992c0-9.564,7.782-17.346,17.346-17.346
				c9.565,0,17.346,7.782,17.346,17.346c0,0.09,0.002,0.18,0.005,0.269c-0.007,0.179-0.007,0.36-0.001,0.543L195.259,240.757z
				 M109.291,209.233v-13.945c0-9.557,7.496-17.604,16.704-17.937c4.76-0.149,9.27,1.559,12.688,4.858
				c2.486,2.4,4.16,5.399,4.887,8.684l3.284,49.866h-34.443v-0.001L109.291,209.233z M95.39,221.249l1.931,19.508H83.915
				L95.39,221.249z M148.044,471.627c-7.362,0-13.412-5.529-14.079-12.926l-8.054-81.416h29.932l6.213,94.343H148.044z
				 M177.104,471.627L177.104,471.627l-6.213-94.343h29.09l3.263,94.343H177.104z M283.546,471.627h-25.13v0v-64.546
				c0-4.148-3.362-7.508-7.508-7.508s-7.508,3.361-7.508,7.508v64.546h-25.13l-3.263-94.343h20.999c3.076,0,5.931-1.667,7.45-4.35
				c0.244-0.431,0.445-0.885,0.6-1.355l6.473-19.682c0.065-0.2,0.09-0.274,0.379-0.274c0.289,0,0.313,0.074,0.378,0.271
				l6.473,19.685c0.154,0.471,0.355,0.924,0.6,1.355c1.52,2.683,4.374,4.35,7.449,4.35h20.999L283.546,471.627z M328.12,419.869
				c-0.669,0.563-1.315,1.154-1.936,1.776c-11.639,11.639-11.962,30.372-0.973,42.407l-0.499,7.575h-26.141l3.263-94.343h29.09
				L328.12,419.869z M387.109,466.949c-6.117,6.117-16.071,6.117-22.188,0c-1.311-1.311-2.378-2.857-3.166-4.597
				c-1.245-2.744-3.96-4.406-6.837-4.406c-0.752,0-1.516,0.113-2.265,0.351c-5.627,1.781-11.699,0.306-15.85-3.845
				c-6.117-6.117-6.117-16.071,0-22.188c2.111-2.111,4.797-3.572,7.766-4.224c1.84-0.403,3.461-1.484,4.541-3.026
				c0.582-0.831,1.155-1.525,1.752-2.122c6.118-6.117,16.072-6.118,22.188-0.001c3.05,3.051,4.672,7.121,4.568,11.46
				c-0.074,3.07,1.73,5.877,4.555,7.086c1.868,0.799,3.529,1.917,4.937,3.326C393.226,450.878,393.226,460.831,387.109,466.949z
				 M343.874,409.163l2.099-31.879h30.27l-2.733,28.251C363.837,401.621,352.557,402.83,343.874,409.163z M430.085,355.152
				c0,3.924-3.193,7.117-7.117,7.117H270.506c-0.031,0-0.015-0.001,0-0.001l-4.954-15.066c-2.119-6.436-7.867-10.595-14.643-10.595
				s-12.524,4.159-14.644,10.598l-4.953,15.064H78.85c-3.924-0.001-7.117-3.194-7.117-7.118v-92.259c0-1.371,0.39-2.654,1.066-3.742
				c0.407-0.4,0.775-0.854,1.092-1.357c1.282-1.247,3.032-2.017,4.959-2.017h155.747l4.234,4.255
				c3.225,3.235,7.514,5.017,12.077,5.017c4.563,0,8.853-1.781,12.082-5.022l4.23-4.25h155.747c1.927,0,3.677,0.771,4.96,2.019
				c0.316,0.503,0.683,0.955,1.09,1.355c0.676,1.088,1.067,2.371,1.067,3.743V355.152z"/>
			<path d="M270.506,362.268L270.506,362.268C270.536,362.268,270.521,362.268,270.506,362.268z"/>
		</g>
	</g>
</g>
<g>
	<g>
		<path d="M90.131,439.367c0.001-16.93-13.774-30.705-30.705-30.705c-9.42,0-18.132,4.266-23.895,11.434
			c-1.595-0.257-3.207-0.387-4.825-0.387C13.774,419.709,0,433.484,0,450.414c0,16.931,13.774,30.706,30.706,30.706
			c2.298,0,4.572-0.257,6.801-0.768c5.316,4.084,11.772,6.291,18.604,6.291c16.932,0,30.706-13.775,30.706-30.706
			c0-0.828-0.037-1.661-0.111-2.509C88.954,449.074,90.131,444.267,90.131,439.367z M72.611,447.846
			c-1.017,1.587-1.399,3.498-1.071,5.354c0.176,0.997,0.261,1.893,0.261,2.738c0,8.651-7.039,15.689-15.689,15.689
			c-4.315,0-8.339-1.731-11.332-4.872c-1.446-1.518-3.422-2.33-5.438-2.33c-0.939,0-1.886,0.176-2.792,0.539
			c-1.886,0.757-3.852,1.14-5.844,1.14c-8.651,0-15.689-7.038-15.689-15.689s7.038-15.689,15.689-15.689
			c1.855,0,3.701,0.34,5.49,1.012c3.555,1.336,7.552-0.195,9.303-3.568c2.719-5.236,8.056-8.489,13.927-8.489
			c8.651,0,15.689,7.038,15.689,15.689C75.115,442.356,74.248,445.287,72.611,447.846z"/>
	</g>
</g>
<g>
</g>
<g>
</g>
<g>
</g>
<g>
</g>
<g>
</g>
<g>
</g>
<g>
</g>
<g>
</g>
<g>
</g>
<g>
</g>
<g>
</g>
<g>
</g>
<g>
</g>
<g>
</g>
<g>
</g>
</svg>
