<?xml version="1.0"?>
<svg xmlns="http://www.w3.org/2000/svg" xmlns:xlink="http://www.w3.org/1999/xlink" xmlns:svgjs="http://svgjs.com/svgjs" version="1.1" width="512" height="512" x="0" y="0" viewBox="0 0 509.921 509.921" style="enable-background:new 0 0 512 512" xml:space="preserve" class=""><g><g xmlns="http://www.w3.org/2000/svg"><g><g><g><g><g><path d="m96.636 171.557c0-18.49 9.509-35.987 22.824-46.797l31.689-44.288c4.312-28.33 28.777-50.036 58.311-50.036 18.041 0 34.18 8.108 45 20.869 10.82-12.761 26.959-20.869 45-20.869 6.305 0 12.378.989 18.074 2.82l36.908 34.759c2.585 6.636 4.004 13.855 4.004 21.406 0 7.844-1.544 15.323-4.324 22.169 32.188.451 59.146 27.67 59.146 59.965h-316.632z" fill="#f1f901" data-original="#f8e868" style="" class=""/></g></g><g><g><path d="m409.02 151.032h-285.059c3.98-10.406 10.729-19.611 18.934-26.272l31.689-44.288c3.713-24.39 22.367-43.856 46.329-48.803-3.859-.795-7.849-1.233-11.945-1.233-29.534 0-53.999 21.706-58.311 50.036l-31.689 44.288c-8.65 7.023-15.673 16.876-19.547 27.983-2.105 6.028-3.277 13.421-3.277 19.814h23.927 292.706c0-7.172-1.336-15.091-3.757-21.525z" fill="#f9de01" data-original="#e8ab4c" style="" class=""/></g><g><path d="m317.158 32.898c-3.876-.801-14.076-2.461-18.189-2.461-12.247 0-34.5 4.736-51 25.018 0 0 6.492 6.718 13.5 19.218 3.749-9.751 17.249-29.501 55.689-41.775z" fill="#f9de01" data-original="#e8ab4c" style="" class=""/></g></g><g><path d="m97.637 171.971h314.648v30.5h-314.648z" fill="#01f98f" data-original="#9eb6f4" style="" class=""/></g><g><path d="m97.637 171.971h22.926v30.5h-22.926z" fill="#01f98f" data-original="#6e91ef" style="" class=""/></g><g><path d="m97.637 202.471v6.952l51.823 292.999h210l52.825-292.999v-6.952z" fill="#ff95bd" data-original="#ff95bd" style="" class=""/></g><g><path d="m167.973 483.909-49.779-281.438h-20.557v6.952l51.823 292.999h210l3.338-18.513z" fill="#ff7bac" data-original="#ff7bac" style="" class=""/></g><g><path d="m112.234 284.422 17.24 105h250.359l17.625-105z" fill="#01f98f" data-original="#8edf78" style="" class=""/></g><g><path d="m146.843 368.05-13.731-83.628h-20.878l17.24 105h250.359l3.587-21.372z" fill="#01f98f" data-original="#31a469" style="" class=""/></g><g><path d="m254.46 271.429 22.092 44.762 49.398 7.178-35.745 34.842 8.438 49.199-44.183-23.228-44.183 23.228 8.439-49.199-35.745-34.842 49.398-7.178z" fill="#f1f901" data-original="#f8e868" style="" class=""/></g><g><path d="m298.643 407.41-4.272-24.913-46.544-28.472-36.421-34.788-28.435 4.132 35.745 34.842-4.166 24.286-4.273 24.913 24.946-13.115 19.237-10.113z" fill="#f9de01" data-original="#e8ab4c" style="" class=""/></g><g><path d="m370.683 43.505-4.949-4.949 5.537-5.537c5.858-5.858 5.858-15.355 0-21.213-5.858-5.858-15.355-5.858-21.213 0l-5.537 5.537-5.657-5.657c-5.858-5.858-15.355-5.858-21.213 0-5.858 5.858-5.858 15.355 0 21.213l5.657 5.657-5.069 5.069c-5.858 5.858-5.858 15.355 0 21.213 5.858 5.858 15.355 5.858 21.213 0l5.069-5.069 4.949 4.949c5.858 5.858 15.355 5.858 21.213 0 5.858-5.858 5.858-15.356 0-21.213z" fill="#f1f901" data-original="#f8e868" style="" class=""/></g><g><path d="m344.46 48.922-10.5-10.661-16.009-5.371 5.657 5.657-5.069 5.069c-5.858 5.858-5.858 15.355 0 21.213 5.858 5.858 15.355 5.858 21.213 0l5.069-5.069 4.949 4.949z" fill="#f9de01" data-original="#e8ab4c" style="" class=""/></g><g><path d="m177.989 109.666-4.949-4.949 5.537-5.537c5.858-5.858 5.858-15.355 0-21.213-5.858-5.858-15.355-5.858-21.213 0l-5.537 5.537-5.657-5.657c-5.858-5.858-15.355-5.858-21.213 0-5.858 5.858-5.858 15.355 0 21.213l5.657 5.657-5.069 5.069c-5.858 5.858-5.858 15.355 0 21.213 5.858 5.858 15.355 5.858 21.213 0l5.069-5.069 4.949 4.949c5.858 5.858 15.355 5.858 21.213 0 5.858-5.858 5.858-15.356 0-21.213z" fill="#f1f901" data-original="#f8e868" style="" class=""/></g><g><path d="m151.837 115.466-10.5-10.661-16.009-5.371 5.657 5.657-5.069 5.069c-5.858 5.858-5.858 15.355 0 21.213 5.858 5.858 15.355 5.858 21.213 0l5.069-5.069 4.949 4.949z" fill="#f9de01" data-original="#e8ab4c" style="" class=""/></g></g></g></g><g><path d="m344.46 164.471h15v15h-15z" fill="#000000" data-original="#000000" style="" class=""/><path d="m400.603 123.864c-10.77-9.297-22.696-16.654-36.49-18.904 3.348-5.037 3.848-20.037.492-28.819 17.049-3.477 23.729-25.046 11.732-37.582 8.787-8.719 9.062-23.233.238-32.057-8.695-8.695-23.506-8.722-32.054.233-14.154-14.462-39.569-3.901-38.718 16.512-18.677-1.77-37.533 4.533-51.342 17.247-12.211-11.242-28.213-17.251-45-17.559-28-.514-53.5 16.986-63.165 45.738-22.662-12.338-44.382 18.37-26.287 36.044-3.975 4.09-6.196 9.433-6.332 15.127-20.217 19.077-23.54 44.626-23.54 44.626v45.5.109l53.034 299.841h222.559l54.056-299.828v-45.622c-.001.001-.001-24.048-19.183-40.606zm-77.649-106.876c7.419-7.417 16.89 6.284 21.567 10.961 4.671-4.671 14.053-18.234 21.447-10.84 7.38 7.38-6.166 16.771-10.841 21.446 4.621 4.62 17.522 13.589 10.253 20.859-7.255 7.258-16.241-5.635-20.859-10.254-4.633 4.633-13.685 17.668-20.98 10.373-7.279-7.279 5.742-16.348 10.373-20.979-4.661-4.66-18.363-14.164-10.96-21.566zm-192.694 66.161c7.419-7.417 16.89 6.284 21.567 10.961 4.666-4.666 14.054-18.233 21.446-10.842 7.382 7.38-6.169 16.777-10.84 21.448l10.252 10.253v-.001c7.152 7.153-3.559 16.597-10.893 10.321-3.536-3.026-6.673-6.675-9.965-9.968-4.632 4.633-13.685 17.668-20.979 10.373-7.279-7.279 5.743-16.348 10.373-20.979-4.658-4.656-18.364-14.164-10.961-21.566zm-11.026 52.042c8.376 9.547 23.46 10.221 32.595 1.34 8.707 8.334 22.946 8.17 31.464-.349 8.518-8.518 8.682-22.755.35-31.462 15.896-15.267 1.225-42.632-20.292-38.148 8.537-17.043 26.287-28.636 46.11-28.636 19.556 0 33.027 10.846 45 24.966 11.974-14.121 37.5-28.479 57.447-23.445-7.921 9.056-7.149 23.145 1.685 31.292 8.668 7.994 22.458 7.857 30.93-.379 10.438 8.553 7.608 40.08-1.477 48.566 28.915-.514 58.331 20.365 61.346 45.535h-29.932v15h30.324v15.5h-299.647v-15.5h224.323v-15h-223.96c1.298-11.013 6.104-21.237 13.734-29.28zm.611 156.731h116.137l-8.594 17.413-60.535 8.796 43.804 42.698-3.618 21.093h-71.276zm145.691-15-11.075-22.441-11.075 22.441h-15.442l-3.273-66.951h58.915l-3.274 66.951zm16.61 78.671 6.536 38.106-34.222-17.991-34.222 17.992 6.536-38.106-27.687-26.987 38.262-5.56 17.111-34.671 17.111 34.671 38.262 5.56zm-72.494-145.622 3.273 66.951h-40.397l-6.771-66.951zm-5.185 186.951-4.15 24.197 19.167-10.076 4.102 83.878h-29.01l-9.911-97.999zm29.693 7.134-1.527.075 21.828-11.475 19.685 10.349-4.494 91.917h-31.049zm54.628 6.646 19.817 10.418-4.15-24.197h20.905l-9.693 97.999h-30.997zm13.093-28.78-3.618-21.093 43.804-42.698-60.535-8.796-8.594-17.413h116.852l-16.226 90zm-6.552-105 3.274-66.951h45.246l-6.621 66.951zm-144.648-66.951 6.771 66.951h-40.259l-11.842-66.951zm-12.264 186.951h31.17l9.911 97.999h-23.748zm214.775 97.999h-22.453l9.693-97.999h30.428zm39.302-217.999h-40.194l6.621-66.951h45.643z" fill="#000000" data-original="#000000" style="" class=""/></g></g></g></svg>
